<?xml version="1.0" encoding="utf-8"?>
<!-- Generator: Adobe Illustrator 18.0.0, SVG Export Plug-In . SVG Version: 6.00 Build 0)  -->
<!DOCTYPE svg PUBLIC "-//W3C//DTD SVG 1.1//EN" "http://www.w3.org/Graphics/SVG/1.1/DTD/svg11.dtd">
<svg version="1.1" id="Layer_1" xmlns:sketch="http://www.bohemiancoding.com/sketch/ns"
	 xmlns="http://www.w3.org/2000/svg" xmlns:xlink="http://www.w3.org/1999/xlink" x="0px" y="0px" width="32px" height="64px"
	 viewBox="0 0 32 64" enable-background="new 0 0 32 64" xml:space="preserve">
<title>icon-5</title>
<desc>Created with Sketch.</desc>
<path id="Shape" sketch:type="MSShapeGroup" fill="#505977" d="M18 22.082v-1.649c2.203-1.241 4-4.337 4-7.432 0-4.971 0-9-6-9s-6 4.029-6 9c0 3.096 1.797 6.191 4 7.432v1.649c-6.784 0.555-12 3.888-12 7.918h28c0-4.030-5.216-7.364-12-7.918z"/>
<path id="Shape_1_" sketch:type="MSShapeGroup" fill="#FFFFFF" d="M19,18v3c0,1.1,0.9,2,2,2h2c2.2,0,4,1.8,4,4v2H5v-2c0-2.2,1.8-4,4-4h2c1.1,0,2-0.9,2-2v-3"/>
</svg>
